<svg xmlns="http://www.w3.org/2000/svg" version="1.1" xmlns:xlink="http://www.w3.org/1999/xlink" xmlns:svgjs="http://svgjs.dev/svgjs" width="1500" height="1500" viewBox="0 0 1500 1500"><rect width="1500" height="1500" fill="#000000"></rect><g transform="matrix(0.6666666666666666,0,0,0.6666666666666666,250,187.66666666666674)"><svg viewBox="0 0 320 360" data-background-color="#111111" preserveAspectRatio="xMidYMid meet" height="1687" width="1500" xmlns="http://www.w3.org/2000/svg" xmlns:xlink="http://www.w3.org/1999/xlink"><g id="tight-bounds" transform="matrix(1,0,0,1,0,0)"><svg viewBox="0 0 320 360" height="360" width="320"><g><svg></svg></g><g><svg viewBox="0 0 320 360" height="360" width="320"><g><path d="M160 340c88.258 0 160-71.742 160-160 0-88.258-71.742-160-160-160-88.258 0-160 71.742-160 160 0 88.258 71.742 160 160 160zM165.161 329.368v-10.323c72.671-2.684 131.2-61.213 133.884-133.884h10.323c-2.684 78.452-65.755 141.523-144.207 144.207zM165.161 30.632c78.452 2.684 141.523 65.755 144.207 144.207h-10.323c-2.684-72.671-61.213-131.2-133.884-133.884zM289.032 180c0 71.123-57.91 129.032-129.032 129.032-71.123 0-129.032-57.91-129.032-129.032 0-71.123 57.91-129.032 129.032-129.032 71.123 0 129.032 57.91 129.032 129.032zM154.839 30.632v10.323c-72.671 2.684-131.2 61.213-133.884 133.884h-10.323c2.684-78.452 65.755-141.523 144.207-144.207zM20.955 185.161c2.684 72.671 61.213 131.2 133.884 133.884v10.323c-78.452-2.684-141.523-65.755-144.207-144.207z" fill="#ffffff" fill-rule="nonzero" stroke="none" stroke-width="1" stroke-linecap="butt" stroke-linejoin="miter" stroke-miterlimit="10" stroke-dasharray="" stroke-dashoffset="0" font-family="none" font-weight="none" font-size="none" text-anchor="none" style="mix-blend-mode: normal" data-fill-palette-color="tertiary"></path></g><g transform="matrix(1,0,0,1,64,129.76049766718506)"><svg viewBox="0 0 192 100.47900466562986" height="100.47900466562986" width="192"><g><svg viewBox="0 0 192 100.47900466562986" height="100.47900466562986" width="192"><g><svg viewBox="0 0 192 100.47900466562986" height="100.47900466562986" width="192"><g><svg viewBox="0 0 192 100.47900466562986" height="100.47900466562986" width="192"><g id="textblocktransform"><svg viewBox="0 0 192 100.47900466562986" height="100.47900466562986" width="192" id="textblock"><g><svg viewBox="0 0 192 100.47900466562986" height="100.47900466562986" width="192"><g transform="matrix(1,0,0,1,0,0)"><svg width="192" viewBox="2 -32.57 62.790000000000006 32.86" height="100.47900466562986" data-palette-color="#ffffff"><path d="M8.06-32.03L8.06-32.03Q9.03-32.03 9.96-32.08 10.89-32.13 11.96-32.2 13.04-32.28 13.72-32.32L13.72-32.32Q13.82-32.13 13.79-31.52 13.77-30.91 13.62-30.91L13.62-30.91Q13.13-30.91 11.87-30.57 10.6-30.22 10.5-29.88L10.5-29.88Q10.06-28.17 10.06-25.34L10.06-25.34 10.06-17.38 10.4-17.09 10.74-17.09Q12.3-17.09 13.57-18.51L13.57-18.51Q19.29-24.9 21.97-28.42L21.97-28.42Q23.14-29.83 23.14-30.27L23.14-30.27Q23.14-31.1 20.36-31.1L20.36-31.1Q20.17-31.1 20.17-31.54 20.17-31.98 20.26-32.32L20.26-32.32Q20.9-32.28 21.92-32.2 22.95-32.13 23.83-32.08 24.71-32.03 25.49-32.03L25.49-32.03Q26.71-32.03 28.27-32.15 29.83-32.28 30.42-32.32L30.42-32.32Q30.52-32.13 30.49-31.62 30.47-31.1 30.32-31.1L30.32-31.1Q27.34-30.76 25.83-29.05L25.83-29.05 16.02-17.63Q15.63-17.19 16.36-16.31L16.36-16.31 28.13-3.37Q28.91-2.54 30.18-2 31.45-1.46 32.15-1.37 32.86-1.27 33.3-1.27L33.3-1.27Q33.54-1.27 33.54-0.39L33.54-0.39Q33.54-0.05 33.45 0.15L33.45 0.15Q28.56-0.1 27.39-0.1L27.39-0.1Q26.17-0.1 25.2-0.05 24.22 0 23 0.05 21.78 0.1 20.8 0.15L20.8 0.15Q20.61-0.05 20.61-0.66 20.61-1.27 20.8-1.27L20.8-1.27Q21.39-1.27 22.14-1.46 22.9-1.66 22.9-2.05L22.9-2.05Q22.9-3.61 11.82-14.99L11.82-14.99Q11.62-15.19 10.4-15.19L10.4-15.19Q10.06-15.19 10.06-14.79L10.06-14.79 10.06-6.79Q10.06-3.96 10.5-2.25L10.5-2.25Q10.6-1.9 11.87-1.59 13.13-1.27 13.62-1.27L13.62-1.27Q13.77-1.27 13.79-0.68 13.82-0.1 13.72 0.15L13.72 0.15Q8.84-0.1 8.06-0.1L8.06-0.1Q7.81-0.1 2.2 0.15L2.2 0.15Q2-0.05 2-0.59L2-0.59Q2-1.27 2.2-1.27L2.2-1.27Q2.83-1.27 4.08-1.56 5.32-1.86 5.47-2.25L5.47-2.25Q5.81-3.56 5.81-6.59L5.81-6.59 5.81-25.54Q5.81-28.56 5.47-29.88L5.47-29.88Q5.32-30.27 4.08-30.59 2.83-30.91 2.2-30.91L2.2-30.91Q2-30.91 2-31.54L2-31.54Q2-32.13 2.2-32.32L2.2-32.32Q2.83-32.28 4.79-32.15 6.74-32.03 8.06-32.03ZM64.55-9.08L64.79-8.94Q64.79-8.4 64.11-5.2 63.43-2 63.13-1.86L63.13-1.86Q59.57 0.29 51.46 0.29L51.46 0.29Q45.02 0.29 40.5-4.44 35.98-9.18 35.98-15.72L35.98-15.72Q35.98-22.66 40.62-27.61 45.26-32.57 52-32.57L52-32.57Q57.76-32.57 63.86-31.35L63.86-31.35Q63.77-24.8 63.77-24.32L63.77-24.32Q63.77-23.58 62.74-23.58L62.74-23.58Q62.25-23.58 62.11-23.83L62.11-23.83Q61.96-24.46 61.74-25.12 61.52-25.78 60.81-26.83 60.1-27.88 59.1-28.64 58.1-29.39 56.27-29.96 54.44-30.52 52.15-30.52L52.15-30.52Q47.36-30.52 43.99-26.29 40.62-22.07 40.62-16.75L40.62-16.75Q40.62-12.79 41.99-9.47 43.36-6.15 46.31-3.98 49.27-1.81 53.32-1.81L53.32-1.81Q58.15-1.81 60.79-4.64L60.79-4.64Q61.47-5.37 61.98-6.57 62.5-7.76 62.77-8.57 63.03-9.38 63.18-9.38L63.18-9.38Q63.47-9.38 63.89-9.28 64.3-9.18 64.55-9.08L64.55-9.08Z" opacity="1" transform="matrix(1,0,0,1,0,0)" fill="#ffffff" class="wordmark-text-0" data-fill-palette-color="primary" id="text-0"></path></svg></g></svg></g></svg></g></svg></g><g></g></svg></g></svg></g></svg></g></svg></g><defs></defs></svg><rect width="320" height="360" fill="none" stroke="none" visibility="hidden"></rect></g></svg></g></svg>