<svg xmlns="http://www.w3.org/2000/svg" version="1.1" xmlns:xlink="http://www.w3.org/1999/xlink" xmlns:svgjs="http://svgjs.dev/svgjs" width="1500" height="1687" viewBox="0 0 1500 1687"><g transform="matrix(1,0,0,1,0,0)"><svg viewBox="0 0 320 360" data-background-color="#0072bb" preserveAspectRatio="xMidYMid meet" height="1687" width="1500" xmlns="http://www.w3.org/2000/svg" xmlns:xlink="http://www.w3.org/1999/xlink"><g id="tight-bounds" transform="matrix(1,0,0,1,0,0)"><svg viewBox="0 0 320 360" height="360" width="320"><g><svg></svg></g><g><svg viewBox="0 0 320 360" height="360" width="320"><g><path d="M160 340c88.258 0 160-71.742 160-160 0-88.258-71.742-160-160-160-88.258 0-160 71.742-160 160 0 88.258 71.742 160 160 160zM165.161 329.368v-10.323c72.671-2.684 131.2-61.213 133.884-133.884h10.323c-2.684 78.452-65.755 141.523-144.207 144.207zM165.161 30.632c78.452 2.684 141.523 65.755 144.207 144.207h-10.323c-2.684-72.671-61.213-131.2-133.884-133.884zM289.032 180c0 71.123-57.91 129.032-129.032 129.032-71.123 0-129.032-57.91-129.032-129.032 0-71.123 57.91-129.032 129.032-129.032 71.123 0 129.032 57.91 129.032 129.032zM154.839 30.632v10.323c-72.671 2.684-131.2 61.213-133.884 133.884h-10.323c2.684-78.452 65.755-141.523 144.207-144.207zM20.955 185.161c2.684 72.671 61.213 131.2 133.884 133.884v10.323c-78.452-2.684-141.523-65.755-144.207-144.207z" fill="#e1e1dd" fill-rule="nonzero" stroke="none" stroke-width="1" stroke-linecap="butt" stroke-linejoin="miter" stroke-miterlimit="10" stroke-dasharray="" stroke-dashoffset="0" font-family="none" font-weight="none" font-size="none" text-anchor="none" style="mix-blend-mode: normal" data-fill-palette-color="tertiary"></path></g><g transform="matrix(1,0,0,1,64,134.17234965902045)"><svg viewBox="0 0 192 91.65530068195908" height="91.65530068195908" width="192"><g><svg viewBox="0 0 192 91.65530068195908" height="91.65530068195908" width="192"><g><svg viewBox="0 0 192 91.65530068195908" height="91.65530068195908" width="192"><g><svg viewBox="0 0 192 91.65530068195908" height="91.65530068195908" width="192"><g id="textblocktransform"><svg viewBox="0 0 192 91.65530068195908" height="91.65530068195908" width="192" id="textblock"><g><svg viewBox="0 0 192 91.65530068195908" height="91.65530068195908" width="192"><g transform="matrix(1,0,0,1,0,0)"><svg width="192" viewBox="2.25 -38.5 80.65 38.5" height="91.65530068195908" data-palette-color="#e1e1dd"><path d="M13-14.25L13-7.95Q13-6.05 13.2-4.85 13.4-3.65 14-3 14.6-2.35 15.65-2.13 16.7-1.9 18.45-1.9L18.45-1.9 18.45 0 2.25 0 2.25-1.9Q4-1.9 5.08-2.13 6.15-2.35 6.75-2.98 7.35-3.6 7.55-4.73 7.75-5.85 7.75-7.6L7.75-7.6 7.75-30.9Q7.75-32.8 7.53-33.93 7.3-35.05 6.73-35.65 6.15-36.25 5.2-36.43 4.25-36.6 2.75-36.6L2.75-36.6 2.75-38.5 17.95-38.5 17.95-36.6Q16.45-36.6 15.5-36.4 14.55-36.2 13.98-35.55 13.4-34.9 13.2-33.73 13-32.55 13-30.55L13-30.55 13-18.2 25.5-33.25Q26.5-34.5 26.5-35.2L26.5-35.2Q26.5-36.6 23.65-36.6L23.65-36.6 23.65-38.5 35.7-38.5 35.7-36.65Q34.7-36.65 33.95-36.52 33.2-36.4 32.48-36 31.75-35.6 30.95-34.85 30.15-34.1 29.1-32.9L29.1-32.9 19.7-22.05 34.3-4.5Q35.55-3.05 36.65-2.48 37.75-1.9 39.6-1.9L39.6-1.9 39.6 0 24.25 0 24.25-1.9Q26.2-1.9 27.05-2.23 27.9-2.55 27.9-3.25L27.9-3.25Q27.9-3.65 27.5-4.4 27.1-5.15 26.2-6.25L26.2-6.25 16.45-18.25 13-14.25ZM77.45-30.55L77.45-7.95Q77.45-6.05 77.65-4.88 77.85-3.7 78.42-3.08 79-2.45 80.07-2.2 81.15-1.95 82.9-1.9L82.9-1.9 82.9 0 66.7 0 66.7-1.9Q68.45-1.95 69.52-2.2 70.6-2.45 71.2-3.05 71.8-3.65 72-4.75 72.2-5.85 72.2-7.6L72.2-7.6 72.2-18.45 51.95-18.45 51.95-7.95Q51.95-6.05 52.15-4.88 52.35-3.7 52.92-3.08 53.5-2.45 54.57-2.2 55.65-1.95 57.4-1.9L57.4-1.9 57.4 0 41.2 0 41.2-1.9Q42.95-1.95 44.02-2.2 45.1-2.45 45.7-3.05 46.3-3.65 46.5-4.75 46.7-5.85 46.7-7.6L46.7-7.6 46.7-30.9Q46.7-32.65 46.52-33.73 46.35-34.8 45.82-35.43 45.3-36.05 44.3-36.27 43.3-36.5 41.7-36.6L41.7-36.6 41.7-38.5 56.9-38.5 56.9-36.6Q55.3-36.55 54.32-36.3 53.35-36.05 52.82-35.4 52.3-34.75 52.12-33.6 51.95-32.45 51.95-30.55L51.95-30.55 51.95-20.95 72.2-20.95 72.2-30.9Q72.2-32.65 72.02-33.73 71.85-34.8 71.32-35.43 70.8-36.05 69.8-36.27 68.8-36.5 67.2-36.6L67.2-36.6 67.2-38.5 82.4-38.5 82.4-36.6Q80.8-36.55 79.82-36.3 78.85-36.05 78.32-35.4 77.8-34.75 77.62-33.6 77.45-32.45 77.45-30.55L77.45-30.55Z" opacity="1" transform="matrix(1,0,0,1,0,0)" fill="#e1e1dd" class="wordmark-text-0" data-fill-palette-color="primary" id="text-0"></path></svg></g></svg></g></svg></g></svg></g></svg></g></svg></g></svg></g></svg></g><defs></defs></svg><rect width="320" height="360" fill="none" stroke="none" visibility="hidden"></rect></g></svg></g></svg>